<svg width="512" height="512" viewBox="0 0 512 512" fill="none" xmlns="http://www.w3.org/2000/svg">
<path d="M476 282.5C490.636 282.5 502.5 270.636 502.5 256C502.5 241.364 490.636 229.5 476 229.5V282.5ZM13.2617 237.262C2.91278 247.611 2.91278 264.389 13.2617 274.738L181.907 443.383C192.256 453.732 209.034 453.732 219.383 443.383C229.732 433.034 229.732 416.256 219.383 405.907L69.4767 256L219.383 106.093C229.732 95.7445 229.732 78.9656 219.383 68.6167C209.034 58.2678 192.256 58.2678 181.907 68.6167L13.2617 237.262ZM476 229.5L32 229.5V282.5L476 282.5V229.5Z" fill="white"/>
</svg>
